<svg width="40" height="40" viewBox="0 0 40 40" fill="none" xmlns="http://www.w3.org/2000/svg">
    <path d="M10.6296 0.78125H4.28594C2.35031 0.78125 0.78125 2.35031 0.78125 4.28594V18.8548C0.78125 20.7904 2.35031 22.3595 4.28594 22.3595H7.71344C8.59852 23.6704 8.7607 25.3685 8.10773 26.8348C10.4564 26.6598 12.3166 24.7352 12.3895 22.3595H16.9016M27.5093 15.7217V4.28594C27.5093 2.35039 25.9402 0.78125 24.0046 0.78125H17.6609" stroke="#a87648" stroke-width="2" stroke-miterlimit="10" stroke-linecap="round" stroke-linejoin="round"></path>
    <path d="M10.6299 16.0232L13.974 7.24296C14.0424 7.07593 14.2789 7.0757 14.3475 7.24257L17.6612 16.0232M11.6729 13.8365H16.6351M36.7677 34.6784C38.3039 32.6973 39.219 30.2103 39.219 27.5093C39.219 21.0423 33.9765 15.7998 27.5096 15.7998C21.0426 15.7998 15.8001 21.0423 15.8001 27.5093C15.8001 33.9762 21.0426 39.2187 27.5096 39.2187C29.5894 39.2187 31.5422 38.6758 33.2351 37.7249C34.7779 39.4026 37.3246 39.7061 39.219 38.4354C37.8025 37.6859 36.8828 36.2531 36.7677 34.6784Z" stroke="#a87648" stroke-width="2" stroke-miterlimit="10" stroke-linecap="round" stroke-linejoin="round"></path>
    <path d="M23.9941 31.9621L27.3382 23.1818C27.4066 23.0148 27.643 23.0145 27.7117 23.1814L31.0254 31.9621M25.037 29.7754H29.9993" stroke="#a87648" stroke-width="2" stroke-miterlimit="10" stroke-linecap="round" stroke-linejoin="round"></path>
</svg>
