<svg width="40" height="40" viewBox="0 0 40 40" fill="#a87648" xmlns="http://www.w3.org/2000/svg">
    <path d="M11.5258 17.0865H37.2667C37.6255 17.0864 37.9808 17.1572 38.3121 17.2949C38.6435 17.4326 38.9443 17.6344 39.1973 17.8887V17.8934C39.4513 18.1458 39.6529 18.4459 39.7906 18.7764C39.9284 19.1069 39.9995 19.4613 39.9998 19.8194V37.2665C39.9998 38.0165 39.6917 38.7022 39.1973 39.1965C38.9444 39.4511 38.6436 39.653 38.3122 39.7907C37.9809 39.9285 37.6256 39.9993 37.2667 39.999H11.5258C11.1671 39.9988 10.8119 39.9279 10.4807 39.7901C10.1494 39.6524 9.84861 39.4507 9.59547 39.1965C9.34105 38.9437 9.13916 38.6429 9.00143 38.3117C8.8637 37.9805 8.79286 37.6253 8.79297 37.2665V19.8194C8.79297 19.069 9.10078 18.3834 9.59547 17.8887C9.84873 17.6347 10.1496 17.4332 10.4808 17.2955C10.812 17.1579 11.1671 17.0869 11.5258 17.0865ZM37.2667 18.3359H11.5258C11.3313 18.3364 11.1388 18.3753 10.9594 18.4505C10.78 18.5256 10.6173 18.6355 10.4805 18.7737C10.3421 18.9105 10.2322 19.0734 10.157 19.2528C10.0818 19.4323 10.0428 19.6248 10.0423 19.8194V37.2665C10.0423 37.6744 10.2114 38.0472 10.4805 38.3162C10.6175 38.4538 10.7804 38.563 10.9598 38.6374C11.1392 38.7118 11.3316 38.7499 11.5258 38.7497H37.2667C37.4616 38.7499 37.6546 38.7118 37.8347 38.6374C38.0148 38.5631 38.1785 38.4539 38.3164 38.3162C38.4542 38.1784 38.5634 38.0147 38.6379 37.8346C38.7123 37.6545 38.7506 37.4614 38.7505 37.2665V19.8194C38.7507 19.6244 38.7125 19.4314 38.638 19.2513C38.5635 19.0712 38.4542 18.9075 38.3164 18.7697V18.774C38.0384 18.4947 37.6609 18.3371 37.2667 18.3359Z" fill="#a87648"/>
    <path d="M19.1779 11.8768H29.6191C30.2135 11.8768 30.7597 12.1196 31.1504 12.5143C31.5407 12.909 31.7882 13.4515 31.7882 14.0456V18.3356H27.9016V15.6812H20.8957V18.3359H17.0088V14.0456C17.0088 13.7607 17.0649 13.4787 17.1739 13.2156C17.2829 12.9524 17.4427 12.7133 17.6441 12.5119C17.8455 12.3105 18.0846 12.1508 18.3478 12.0418C18.611 11.9329 18.893 11.8768 19.1779 11.8768ZM29.6188 13.1262H19.1779C18.926 13.1262 18.6963 13.23 18.5269 13.3993C18.3554 13.5707 18.2589 13.8031 18.2585 14.0456V17.0862H19.6463V14.4318H29.151V17.0865H30.5388V14.0459C30.5388 13.794 30.4347 13.5643 30.27 13.3996H30.2654C30.1814 13.3131 30.0809 13.2443 29.9698 13.1973C29.8587 13.1504 29.7394 13.1262 29.6188 13.1262Z" fill="#a87648"/>
    <path d="M6.90125 33.9047C7.24406 33.9047 7.52594 34.1819 7.52594 34.5291C7.52512 34.6945 7.45903 34.8528 7.34204 34.9698C7.22506 35.0867 7.06665 35.1527 6.90125 35.1534H1.87406C1.36219 35.1534 0.89375 34.9409 0.550938 34.6028V34.5984C0.376554 34.425 0.238122 34.2188 0.14358 33.9918C0.0490382 33.7647 0.000245491 33.5213 0 33.2753L0 1.87375C0 1.36187 0.2125 0.893437 0.550938 0.550937C0.724355 0.376526 0.930507 0.238077 1.15756 0.143533C1.38462 0.0489885 1.62811 0.000211328 1.87406 0L19.4463 0C19.7153 0 19.9669 0.0521875 20.2016 0.15625C20.4369 0.264841 20.6491 0.417971 20.8262 0.607187L25.5416 5.65219C25.5544 5.66531 25.5631 5.67812 25.5763 5.69125C25.7204 5.85362 25.8349 6.04011 25.9144 6.24219C25.9947 6.45883 26.0358 6.68802 26.0359 6.91906V9.98156C26.0359 10.1472 25.97 10.3061 25.8529 10.4232C25.7357 10.5403 25.5769 10.6062 25.4113 10.6062C25.3289 10.6067 25.2473 10.5908 25.171 10.5596C25.0948 10.5284 25.0255 10.4825 24.9671 10.4245C24.9086 10.3664 24.8622 10.2974 24.8305 10.2214C24.7988 10.1454 24.7824 10.0639 24.7822 9.98156V6.91906C24.7822 6.83219 24.7738 6.75437 24.7475 6.68469C24.7216 6.62789 24.6896 6.57404 24.6522 6.52406C24.6434 6.51562 24.6344 6.51125 24.6259 6.5025L19.915 1.4575C19.8528 1.39152 19.7794 1.33714 19.6981 1.29687C19.6183 1.26451 19.5327 1.24836 19.4466 1.24937H1.87406C1.79222 1.24929 1.71121 1.26578 1.63592 1.29784C1.56062 1.3299 1.49259 1.37688 1.43594 1.43594L1.43156 1.43156C1.31875 1.54406 1.24937 1.70469 1.24937 1.87375V33.2753C1.24937 33.4487 1.31875 33.605 1.43156 33.7178L1.43594 33.7222C1.54875 33.8309 1.70469 33.9047 1.87406 33.9047H6.90125Z" fill="#a87648"/>
    <path d="M22.1318 28.4738L11.4131 26.4388C10.6887 26.3044 10.0203 25.9878 9.53934 25.5063C9.07902 25.0466 8.79277 24.4438 8.79277 23.7191H10.0421C10.0421 24.0878 10.19 24.3916 10.424 24.626C10.7234 24.9206 11.1615 25.1247 11.6431 25.2156L22.3618 27.25L22.1318 28.4738ZM39.9993 23.7191C39.9993 24.4435 39.7131 25.0422 39.2531 25.5019V25.5063C38.7715 25.9878 38.1037 26.3047 37.3837 26.4388L26.6646 28.4906L26.4306 27.2675L37.1493 25.2156C37.6353 25.1203 38.0734 24.921 38.3725 24.626C38.4934 24.5081 38.5891 24.367 38.654 24.2111C38.7189 24.0553 38.7515 23.8879 38.75 23.7191H39.9993ZM15.92 5.58251C16.2668 5.58251 16.5446 5.86033 16.5446 6.2072C16.5446 6.37285 16.4787 6.5317 16.3616 6.64883C16.2445 6.76597 16.0856 6.83181 15.92 6.83189H7.20121C7.11751 6.83454 7.03414 6.82034 6.95603 6.79014C6.87793 6.75993 6.80669 6.71435 6.74655 6.65608C6.68641 6.59781 6.63859 6.52805 6.60593 6.45094C6.57328 6.37383 6.55645 6.29094 6.55645 6.2072C6.55645 6.12346 6.57328 6.04058 6.60593 5.96347C6.63859 5.88636 6.68641 5.8166 6.74655 5.75833C6.80669 5.70006 6.87793 5.65447 6.95603 5.62427C7.03414 5.59407 7.11751 5.57987 7.20121 5.58251H15.92ZM4.22496 5.58251C4.57215 5.58251 4.85434 5.86033 4.85434 6.2072C4.85334 6.37339 4.78657 6.53241 4.66862 6.64948C4.55067 6.76656 4.39115 6.83214 4.22496 6.83189H3.75684C3.41371 6.83189 3.13184 6.55001 3.13184 6.2072C3.13192 6.0415 3.1978 5.88261 3.315 5.76546C3.43221 5.64832 3.59113 5.58251 3.75684 5.58251H4.22496ZM11.8118 11.2522C12.1546 11.2522 12.4365 11.5338 12.4365 11.8769C12.4365 12.2238 12.1546 12.5013 11.8118 12.5013H7.2009C7.03945 12.495 6.8867 12.4265 6.77468 12.31C6.66267 12.1936 6.6001 12.0383 6.6001 11.8767C6.6001 11.7152 6.66267 11.5599 6.77468 11.4434C6.8867 11.327 7.03945 11.2585 7.2009 11.2522H11.8118ZM4.22527 11.2522C4.57215 11.2522 4.85434 11.5338 4.85434 11.8769C4.85434 12.2238 4.57246 12.5013 4.22527 12.5013H3.75684C3.59118 12.5013 3.43231 12.4355 3.31512 12.3184C3.19792 12.2014 3.132 12.0425 3.13184 11.8769C3.13184 11.5341 3.41371 11.2522 3.75684 11.2522H4.22527ZM15.92 8.41939C16.2668 8.41939 16.5446 8.6972 16.5446 9.04408C16.5446 9.20973 16.4787 9.36857 16.3616 9.48571C16.2445 9.60284 16.0856 9.66868 15.92 9.66877H7.20121C7.11751 9.67141 7.03414 9.65721 6.95603 9.62701C6.87793 9.59681 6.80669 9.55122 6.74655 9.49295C6.68641 9.43468 6.63859 9.36492 6.60593 9.28781C6.57328 9.2107 6.55645 9.12782 6.55645 9.04408C6.55645 8.96034 6.57328 8.87745 6.60593 8.80034C6.63859 8.72323 6.68641 8.65347 6.74655 8.5952C6.80669 8.53693 6.87793 8.49134 6.95603 8.46114C7.03414 8.43094 7.11751 8.41674 7.20121 8.41939H15.92ZM4.22496 8.41939C4.57215 8.41939 4.85434 8.6972 4.85434 9.04408C4.85326 9.21024 4.78646 9.36921 4.66853 9.48627C4.5506 9.60332 4.39112 9.66893 4.22496 9.66877H3.75684C3.41371 9.66877 3.13184 9.38689 3.13184 9.04408C3.13192 8.87837 3.1978 8.71948 3.315 8.60234C3.43221 8.4852 3.59113 8.41939 3.75684 8.41939H4.22496ZM20.0887 0.229702L25.7753 6.40252C25.8868 6.52444 25.9454 6.68567 25.938 6.85076C25.9307 7.01585 25.8581 7.17127 25.7362 7.28283C25.6218 7.3888 25.4716 7.44772 25.3156 7.44783H21.3987C21.081 7.4477 20.7665 7.3848 20.4732 7.26274C20.1799 7.14068 19.9136 6.96187 19.6896 6.73658L19.6506 6.69751C19.2188 6.24872 18.9777 5.65001 18.9781 5.0272V0.624702C18.9782 0.458996 19.0441 0.300105 19.1613 0.182962C19.2785 0.0658197 19.4374 1.46278e-05 19.6031 1.46485e-05C19.7978 1.46485e-05 19.9715 0.0909521 20.0887 0.229702ZM23.8931 6.19876L20.2275 2.22501V5.02751C20.2269 5.32553 20.3403 5.61249 20.5443 5.8297L20.5706 5.85595C20.6793 5.96466 20.8085 6.05086 20.9506 6.10963C21.0927 6.1684 21.2449 6.19858 21.3987 6.19845L23.8931 6.19876ZM28.4043 3.36595C28.3881 3.44628 28.3561 3.52259 28.3102 3.59043C28.2642 3.65827 28.2052 3.71629 28.1366 3.7611C28.068 3.80592 27.9911 3.83664 27.9105 3.85148C27.83 3.86631 27.7472 3.86496 27.6671 3.84751C27.5871 3.83129 27.511 3.79945 27.4432 3.7538C27.3754 3.70816 27.3173 3.64961 27.2722 3.58149C27.2271 3.51338 27.1958 3.43704 27.1802 3.35684C27.1646 3.27664 27.1649 3.19414 27.1812 3.11408L27.42 1.97751L27.7321 0.498452C27.7612 0.357666 27.8379 0.23119 27.9493 0.140299C28.0607 0.0494086 28.2 -0.000351309 28.3437 -0.000610352H30.53C30.8465 -0.000610352 31.1071 0.233765 31.1503 0.541577L31.61 2.72783C31.9309 2.81908 32.2434 2.92751 32.5468 3.05314C32.855 3.17908 33.154 3.32658 33.4403 3.4872L35.3534 2.23783C35.4728 2.16088 35.6149 2.1271 35.7561 2.14211C35.8973 2.15712 36.0291 2.22001 36.1297 2.32033H36.1343L36.9065 3.09251C36.915 3.10564 36.9281 3.11439 36.9371 3.1272L37.6787 3.86908C37.8953 4.08158 37.9175 4.42001 37.7484 4.66283L36.5118 6.55814C36.676 6.84683 36.8223 7.14531 36.95 7.45189C37.0715 7.75533 37.18 8.06783 37.2709 8.38877L39.5006 8.86158C39.6473 8.89025 39.7786 8.97105 39.8703 9.08904C39.9621 9.20703 40.008 9.35423 39.9996 9.50345V11.6556C39.9996 11.9722 39.7656 12.2369 39.4575 12.276L37.2712 12.7356C37.1819 13.0537 37.0748 13.3665 36.9503 13.6725C36.7714 14.1042 36.5552 14.5194 36.304 14.9135C36.2606 14.9834 36.2037 15.0441 36.1367 15.0919C36.0696 15.1397 35.9937 15.1736 35.9133 15.1918C35.833 15.2099 35.7498 15.2119 35.6687 15.1976C35.5876 15.1833 35.5102 15.153 35.4409 15.1085C35.3012 15.0192 35.2025 14.8781 35.1667 14.7162C35.1309 14.5543 35.1609 14.3849 35.25 14.245C35.6688 13.587 35.9725 12.8625 36.1481 12.1025C36.1687 11.9789 36.2261 11.8644 36.3128 11.7738C36.3995 11.6833 36.5114 11.621 36.634 11.595L38.7503 11.1525V10.5625H38.7546V9.97689L36.6334 9.53001C36.5163 9.50556 36.4087 9.448 36.3233 9.36419C36.238 9.28038 36.1784 9.17383 36.1518 9.0572C36.0676 8.6714 35.9486 8.29402 35.7962 7.9297C35.6445 7.56471 35.4615 7.2135 35.2493 6.88002C35.1863 6.77901 35.1533 6.66218 35.1541 6.54313C35.1548 6.42408 35.1894 6.3077 35.2537 6.20751L36.4384 4.39439L36.0562 4.00845C36.0434 4.00001 36.035 3.99095 36.0215 3.97783L35.6053 3.56158L33.8309 4.7197C33.7299 4.79722 33.6074 4.84172 33.4802 4.84714C33.353 4.85257 33.2272 4.81865 33.12 4.75001C32.7864 4.53811 32.4352 4.35525 32.0703 4.20345C31.7147 4.05643 31.3476 3.93895 30.9728 3.8522C30.8494 3.83212 30.7351 3.77482 30.6452 3.68797C30.5552 3.60112 30.494 3.48888 30.4697 3.36626L30.0221 1.24908H28.8465L28.6428 2.22939L28.4043 3.36595ZM29.4368 6.69314C29.0896 6.69314 28.8118 6.41533 28.8118 6.06845C28.8118 5.72158 29.0896 5.44376 29.4368 5.44376C30.8506 5.44376 32.1303 6.01658 33.0587 6.9447C33.5341 7.41946 33.9111 7.98346 34.1679 8.60431C34.4247 9.22516 34.5564 9.89064 34.5553 10.5625C34.5561 10.9301 34.5168 11.2966 34.4381 11.6556C34.3597 12.0139 34.2435 12.3628 34.0915 12.6966C34.0223 12.8472 33.8962 12.9642 33.7409 13.022C33.5855 13.0798 33.4136 13.0735 33.2628 13.0047C33.1887 12.9706 33.122 12.9221 33.0667 12.8622C33.0113 12.8023 32.9683 12.732 32.9401 12.6554C32.9119 12.5789 32.8991 12.4975 32.9024 12.416C32.9057 12.3344 32.9251 12.2544 32.9593 12.1803C33.0718 11.9375 33.1587 11.6728 33.2193 11.395C33.2759 11.1263 33.3062 10.8485 33.3062 10.5622C33.3062 9.49501 32.8725 8.52752 32.174 7.82502C31.4474 7.10026 30.4631 6.69321 29.4368 6.69314Z" fill="#a87648"/>
    <path d="M22.3355 23.7369H26.4605C26.7862 23.7369 27.0809 23.8713 27.2937 24.0835L27.298 24.0879C27.5198 24.3102 27.6445 24.6113 27.6449 24.9254V29.4976C27.6449 30.391 27.2809 31.2024 26.6905 31.7919C26.1052 32.3823 25.2896 32.7466 24.3959 32.7466C23.5021 32.7466 22.6909 32.3823 22.1012 31.7919C21.5152 31.2024 21.1465 30.3913 21.1465 29.4976V24.9254C21.1465 24.6001 21.2812 24.3004 21.498 24.0879V24.0835C21.721 23.8627 22.0217 23.7382 22.3355 23.7369ZM26.3959 24.9863H22.4005V29.4976C22.4001 29.7596 22.4516 30.0192 22.5521 30.2612C22.6526 30.5033 22.8002 30.723 22.9862 30.9076C23.1707 31.0938 23.3903 31.2418 23.6322 31.343C23.8741 31.4442 24.1336 31.4966 24.3959 31.4973C24.6588 31.4971 24.9191 31.4449 25.1618 31.3437C25.4045 31.2425 25.6248 31.0943 25.8099 30.9076C26.1841 30.5336 26.3948 30.0266 26.3959 29.4976V24.9863Z" fill="#a87648"/>
    <path d="M24.3952 30.0394C24.7402 30.0394 25.0199 29.7597 25.0199 29.4147C25.0199 29.0697 24.7402 28.79 24.3952 28.79C24.0502 28.79 23.7705 29.0697 23.7705 29.4147C23.7705 29.7597 24.0502 30.0394 24.3952 30.0394Z" fill="#a87648"/>
</svg>
