<svg width="40" height="40" viewBox="0 0 40 40" fill="#a87648" xmlns="http://www.w3.org/2000/svg">
    <path
        d="M10.1932 5.22745C10.3648 5.39911 10.5898 5.48453 10.814 5.48453C10.9877 5.48467 11.1575 5.43328 11.3019 5.33687C11.4463 5.24045 11.5589 5.10336 11.6254 4.94293C11.6918 4.7825 11.7092 4.60596 11.6753 4.43565C11.6414 4.26534 11.5577 4.10892 11.4348 3.9862L9.37234 1.9237C9.29084 1.8422 9.19409 1.77754 9.0876 1.73344C8.98111 1.68933 8.86698 1.66663 8.75172 1.66663C8.63646 1.66663 8.52233 1.68933 8.41584 1.73344C8.30935 1.77754 8.2126 1.8422 8.13109 1.9237C8.04959 2.0052 7.98494 2.10196 7.94083 2.20844C7.89673 2.31493 7.87402 2.42906 7.87402 2.54432C7.87402 2.65958 7.89673 2.77371 7.94083 2.8802C7.98494 2.98669 8.04959 3.08345 8.13109 3.16495L10.1932 5.22745ZM29.1848 5.48495C29.4098 5.48495 29.6348 5.39911 29.8065 5.22786L31.869 3.16536C31.9505 3.08386 32.0152 2.98711 32.0593 2.88062C32.1034 2.77413 32.1261 2.66 32.1261 2.54474C32.1261 2.42948 32.1034 2.31535 32.0593 2.20886C32.0152 2.10237 31.9505 2.00562 31.869 1.92411C31.7875 1.84261 31.6908 1.77796 31.5843 1.73385C31.4778 1.68974 31.3636 1.66704 31.2484 1.66704C31.1331 1.66704 31.019 1.68974 30.9125 1.73385C30.806 1.77796 30.7093 1.84261 30.6278 1.92411L28.5644 3.98661C28.4416 4.10931 28.3579 4.26569 28.324 4.43596C28.2901 4.60623 28.3074 4.78274 28.3738 4.94315C28.4402 5.10356 28.5528 5.24067 28.6971 5.33711C28.8415 5.43355 29.0112 5.485 29.1848 5.48495ZM19.7457 8.93536C20.1323 8.92703 20.5146 9.0188 20.8553 9.20175C21.196 9.3847 21.4836 9.65263 21.6903 9.97953C21.7515 10.0774 21.8315 10.1621 21.9256 10.2289C22.0197 10.2958 22.1261 10.3434 22.2387 10.3689C22.3512 10.3945 22.4677 10.3976 22.5815 10.3781C22.6952 10.3585 22.804 10.3167 22.9015 10.2549C23.0985 10.131 23.2382 9.9339 23.2898 9.70699C23.3415 9.48007 23.3009 9.24193 23.1769 9.04495C22.4286 7.8562 21.0815 7.13578 19.6973 7.17995C19.4646 7.18638 19.2438 7.28496 19.0837 7.45402C18.9235 7.62309 18.837 7.84881 18.8432 8.08161C18.8573 8.56536 19.2636 8.90953 19.7457 8.93536Z"
        fill="#a87648" />
    <path
        d="M35.3988 10.5528C33.1004 10.1766 30.7454 10.1599 28.3854 10.462C28.1121 8.63616 27.2867 6.952 25.9371 5.63825C24.2767 4.022 22.0858 3.16116 19.7671 3.22866C15.65 3.33783 12.2379 6.48492 11.6163 10.4595C9.22918 10.1449 6.7596 10.1749 4.5771 10.5562C3.70543 10.7224 3.09668 11.4566 3.09668 12.342V35.9412C3.09668 36.2949 3.27043 36.6241 3.56418 36.8224C3.74626 36.9457 4.1246 37.0132 4.3446 36.9841L5.21918 36.8545C9.67626 36.2112 14.1029 36.5532 18.3813 37.8782L19.7425 38.2953C19.8258 38.3203 19.9129 38.3332 19.9996 38.3332C20.0929 38.3332 20.5496 38.197 20.5496 38.197C25.1104 36.6182 30.0146 36.1562 34.7383 36.8541C34.7383 36.8541 35.2829 36.8878 35.4588 36.9312C35.7958 37.0149 36.1458 37.0191 36.4354 36.822C36.6767 36.6591 36.9029 36.2324 36.9029 35.9408V12.3416C36.9025 11.4562 36.2938 10.722 35.3988 10.5528ZM19.8142 4.98408C19.8763 4.982 19.9383 4.982 20.0008 4.982C21.7725 4.982 23.4396 5.65741 24.7117 6.89658C25.361 7.52426 25.8768 8.2767 26.2281 9.1087C26.5794 9.94071 26.7589 10.8351 26.7558 11.7382C26.7558 13.6203 25.9617 15.4312 24.5754 16.7066C23.7929 17.4278 23.3621 18.3745 23.3621 19.3737C23.3614 19.8999 23.1521 20.4044 22.78 20.7765C22.4079 21.1487 21.9033 21.358 21.3771 21.3587H20.8767V16.7428C20.8696 16.5147 20.7741 16.2982 20.6102 16.1393C20.4463 15.9804 20.227 15.8916 19.9988 15.8916C19.7705 15.8916 19.5512 15.9804 19.3873 16.1393C19.2235 16.2982 19.1279 16.5147 19.1208 16.7428V21.3582H18.6204C18.0942 21.3576 17.5897 21.1482 17.2176 20.7761C16.8454 20.404 16.6361 19.8995 16.6354 19.3732C16.6354 18.3732 16.2046 17.4266 15.4221 16.7062C14.7287 16.0669 14.1765 15.2897 13.801 14.4245C13.4255 13.5593 13.235 12.6251 13.2417 11.682C13.2713 8.08408 16.2192 5.0795 19.8142 4.98408ZM20.0017 25.6012C19.4451 25.6004 18.9115 25.3789 18.5181 24.9852C18.1246 24.5915 17.9034 24.0578 17.9029 23.5012V23.0416C18.1391 23.0888 18.3792 23.1131 18.62 23.1141H21.3771C21.614 23.1127 21.8502 23.0888 22.0825 23.0428V23.5012C22.0825 24.6591 21.1488 25.6012 20.0017 25.6012ZM4.96418 35.1166L4.85376 35.1349L4.89335 12.2841C6.92126 11.9312 9.28085 11.9074 11.5392 12.2187C11.6658 14.4157 12.6046 16.5016 14.2329 17.9995C14.65 18.382 14.8792 18.8712 14.8792 19.3737C14.8792 20.4849 15.3754 21.4728 16.1463 22.1587V23.5016C16.1463 25.3241 17.4208 26.8457 19.1217 27.2466V36.2687L18.8975 36.2003C14.3708 34.7962 9.6846 34.4324 4.96418 35.1166ZM35.1467 35.1378L34.99 35.1166C30.2963 34.4187 25.4417 34.8524 20.8775 36.2845V27.2462C22.5713 26.8457 23.8392 25.3241 23.8392 23.5012V22.1682C24.6175 21.4824 25.1179 20.4899 25.1179 19.3732C25.1179 18.8703 25.3483 18.3816 25.7654 17.9978C27.3904 16.5024 28.3346 14.4149 28.4613 12.2203C30.7017 11.9203 32.9396 11.9349 35.1467 12.3416V35.1378Z"
        fill="#a87648" />
    <path
        d="M8.39674 19.8346H11.2201C11.4482 19.8275 11.6647 19.732 11.8236 19.5681C11.9825 19.4042 12.0714 19.1849 12.0714 18.9567C12.0714 18.7284 11.9825 18.5091 11.8236 18.3452C11.6647 18.1813 11.4482 18.0858 11.2201 18.0787H8.39674C8.16859 18.0858 7.95213 18.1813 7.79323 18.3452C7.63433 18.5091 7.54546 18.7284 7.54546 18.9567C7.54546 19.1849 7.63433 19.4042 7.79323 19.5681C7.95213 19.732 8.16859 19.8275 8.39674 19.8346ZM8.39674 25.345H13.4142C13.6471 25.345 13.8704 25.2525 14.035 25.0878C14.1997 24.9232 14.2922 24.6999 14.2922 24.4671C14.2922 24.2342 14.1997 24.0109 14.035 23.8463C13.8704 23.6816 13.6471 23.5892 13.4142 23.5892H8.39674C7.91133 23.5892 7.51758 23.9825 7.51758 24.4671C7.51758 24.9517 7.91133 25.345 8.39674 25.345ZM14.843 28.745H8.39674C7.91133 28.745 7.51758 29.1383 7.51758 29.6229C7.51758 30.1075 7.91091 30.5008 8.39674 30.5008H14.843C15.0712 30.4938 15.2876 30.3982 15.4465 30.2343C15.6054 30.0705 15.6943 29.8512 15.6943 29.6229C15.6943 29.3946 15.6054 29.1753 15.4465 29.0115C15.2876 28.8476 15.0712 28.752 14.843 28.745ZM27.9034 19.3112C27.9034 19.7958 28.2967 20.1892 28.7826 20.1892H31.6051C31.8332 20.1821 32.0497 20.0865 32.2086 19.9227C32.3675 19.7588 32.4564 19.5395 32.4564 19.3112C32.4564 19.083 32.3675 18.8637 32.2086 18.6998C32.0497 18.5359 31.8332 18.4403 31.6051 18.4333H28.7826C28.2967 18.4333 27.9034 18.8267 27.9034 19.3112ZM31.6034 23.5892H26.5859C26.3531 23.5892 26.1298 23.6816 25.9651 23.8463C25.8005 24.0109 25.708 24.2342 25.708 24.4671C25.708 24.6999 25.8005 24.9232 25.9651 25.0878C26.1298 25.2525 26.3531 25.345 26.5859 25.345H31.6034C32.0888 25.345 32.4826 24.9517 32.4826 24.4671C32.4826 23.9825 32.0888 23.5892 31.6034 23.5892ZM30.9755 28.7396H25.1551C24.9269 28.7466 24.7105 28.8422 24.5516 29.0061C24.3927 29.1699 24.3038 29.3892 24.3038 29.6175C24.3038 29.8457 24.3927 30.065 24.5516 30.2289C24.7105 30.3928 24.9269 30.4884 25.1551 30.4954H30.9755C31.2036 30.4884 31.4201 30.3928 31.579 30.2289C31.7379 30.065 31.8268 29.8457 31.8268 29.6175C31.8268 29.3892 31.7379 29.1699 31.579 29.0061C31.4201 28.8422 31.2036 28.7466 30.9755 28.7396Z"
        fill="#a87648" />
</svg>
