<svg width="37" height="40" viewBox="0 0 64 64" fill="#a87648" xmlns="http://www.w3.org/2000/svg">
    <g id="Layer_2" data-name="Layer 2">
      <g id="Layer_1-2" data-name="Layer 1">
        <path d="M31.9,0A32.08,32.08,0,0,0,0,31.9,32.08,32.08,0,0,0,31.9,63.8,32.08,32.08,0,0,0,63.8,31.9,32.08,32.08,0,0,0,31.9,0ZM5.24,31.9a26.67,26.67,0,0,1,1.27-8.08l8.82,8.82Zm20.82,0L4.49,10.34A27.05,27.05,0,0,1,26.06,5.24Zm6.54-21.52L13.74,5.72A26.54,26.54,0,0,1,34.83,5.64ZM31.9,21.36A10.54,10.54,0,1,1,21.36,31.9,10.55,10.55,0,0,1,31.9,21.36ZM10.46,7.61l20.46,20.46L14.13,45.6A27.16,27.16,0,0,1,10.46,7.61Zm4.14,47.8L45.6,39.41,55.93,49.74A27.26,27.26,0,0,1,14.6,55.41ZM49.74,45.6,39.41,55.93A27.05,27.05,0,0,1,58.76,31.9a27.17,27.17,0,0,1-4.14,10.5ZM38.64,31.9,53.87,16.67A27.34,27.34,0,0,1,58.76,31.9H38.64Zm0-26.66A27.27,27.27,0,0,1,53.54,13.6L45.48,21.66ZM37.3,32.81,49.33,45.74,32.36,37.3Zm9.47-5.82L32.81,37.3,20.86,25.34,30.4,15.8,37.3,22.7Z"/>
        <path d="M19.93,19.93a12,12,0,1,0,12,12A12,12,0,0,0,19.93,19.93Zm0,21.85A9.93,9.93,0,1,1,29.86,31.9,9.94,9.94,0,0,1,19.93,41.78Z"/>
      </g>
    </g>
  </svg>
