<svg width="40" height="40" viewBox="0 0 40 40" fill="#a87648" xmlns="http://www.w3.org/2000/svg">
    <path d="M15.3175 20.6212C15.4185 20.6212 15.5179 20.5951 15.6058 20.5454C15.6938 20.4957 15.7674 20.4241 15.8195 20.3375L16.8766 18.5816L18.2773 20.8076C18.3312 20.8932 18.4063 20.9635 18.4954 21.0114C18.5844 21.0594 18.6844 21.0836 18.7855 21.0814C18.8867 21.0793 18.9855 21.0511 19.0725 20.9994C19.1595 20.9477 19.2316 20.8744 19.2818 20.7865L21.5369 16.8462L24.5656 22.3658C24.6153 22.4563 24.688 22.5321 24.7764 22.5854C24.8648 22.6388 24.9657 22.6679 25.0689 22.6697L25.0793 22.6698C25.1808 22.6698 25.2805 22.6434 25.3688 22.5933C25.457 22.5431 25.5307 22.4709 25.5827 22.3837L27.4696 19.2161H32.0198C32.1752 19.2161 32.3242 19.1543 32.4341 19.0445C32.544 18.9346 32.6057 18.7855 32.6057 18.6301C32.6057 18.4747 32.544 18.3257 32.4341 18.2158C32.3242 18.1059 32.1752 18.0442 32.0198 18.0442H27.1366C27.0351 18.0442 26.9354 18.0706 26.8471 18.1207C26.7589 18.1709 26.6852 18.2431 26.6333 18.3303L25.1002 20.9039L22.0613 15.3659C22.0112 15.2746 21.9377 15.1984 21.8484 15.1449C21.759 15.0915 21.657 15.0628 21.5529 15.0619H21.5476C21.4444 15.0619 21.343 15.0891 21.2537 15.1409C21.1644 15.1927 21.0903 15.2671 21.0391 15.3567L18.7494 19.3575L17.3614 17.1519C17.3086 17.0681 17.2355 16.999 17.1487 16.9511C17.062 16.9032 16.9645 16.8781 16.8655 16.8781H16.8597C16.7596 16.8791 16.6615 16.9057 16.5747 16.9553C16.4878 17.005 16.4151 17.0761 16.3635 17.1618L14.9863 19.4494H11.6563C11.5008 19.4494 11.3518 19.5111 11.2419 19.621C11.132 19.7309 11.0703 19.8799 11.0703 20.0353C11.0703 20.1907 11.132 20.3397 11.2419 20.4496C11.3518 20.5595 11.5008 20.6212 11.6563 20.6212H15.3175ZM33.054 4.35889C32.8986 4.35889 32.7496 4.42062 32.6397 4.5305C32.5298 4.64039 32.468 4.78942 32.468 4.94482V6.67326H30.7398C30.5844 6.67326 30.4353 6.73499 30.3254 6.84488C30.2156 6.95476 30.1538 7.1038 30.1538 7.2592C30.1538 7.4146 30.2156 7.56363 30.3254 7.67352C30.4353 7.7834 30.5844 7.84514 30.7398 7.84514H32.468V9.57365C32.468 9.72905 32.5298 9.87809 32.6397 9.98797C32.7496 10.0979 32.8986 10.1596 33.054 10.1596C33.2094 10.1596 33.3584 10.0979 33.4683 9.98797C33.5782 9.87809 33.6399 9.72905 33.6399 9.57365V7.84514H35.3682C35.5236 7.84514 35.6726 7.7834 35.7825 7.67352C35.8924 7.56363 35.9541 7.4146 35.9541 7.2592C35.9541 7.1038 35.8924 6.95476 35.7825 6.84488C35.6726 6.73499 35.5236 6.67326 35.3682 6.67326H33.6399V4.94482C33.6399 4.78942 33.5782 4.64039 33.4683 4.5305C33.3584 4.42062 33.2094 4.35889 33.054 4.35889Z" fill="#a87648"/>
    <path d="M35.1219 24.4343C37.9765 21.3825 38.7946 16.7678 37.2255 12.8115C38.9093 11.5425 40 9.52597 40 7.25925C40 3.42917 36.8842 0.313232 33.0544 0.313232C31.4812 0.313232 29.9406 0.853154 28.7164 1.83354C28.5965 1.93112 28.52 2.07215 28.5036 2.2259C28.4871 2.37964 28.5322 2.53364 28.6288 2.65433C28.7255 2.77502 28.8659 2.85261 29.0195 2.8702C29.1731 2.88779 29.3275 2.84395 29.4489 2.74823C30.4808 1.92183 31.7275 1.48511 33.0543 1.48511C36.2379 1.48511 38.828 4.07542 38.828 7.25925C38.828 10.4444 36.238 13.0357 33.0543 13.0357C30.09 13.0357 27.6413 10.7905 27.3162 7.91151C27.3155 7.90487 27.3145 7.89815 27.3136 7.89144C27.2903 7.68151 27.2785 7.47046 27.2783 7.25925C27.2783 6.35487 27.4815 5.49003 27.8821 4.68862C27.9516 4.54962 27.963 4.38871 27.9139 4.24128C27.8647 4.09386 27.7591 3.97198 27.6201 3.90245C27.4811 3.83298 27.3202 3.82156 27.1727 3.87069C27.0253 3.91983 26.9034 4.02551 26.8339 4.16448C26.3512 5.13003 26.1064 6.17128 26.1064 7.25917C26.1064 7.35761 26.109 7.45542 26.113 7.55292C24.6335 8.08175 23.2525 8.95151 22.0952 10.0897L21.4475 10.7264L21.4389 10.7178L20.8022 10.0905C18.742 8.05925 16.0452 6.92409 13.4022 6.97878C11.203 7.02409 9.25688 7.88581 7.77484 9.47019C7.72226 9.52646 7.68127 9.59253 7.65422 9.66465C7.62718 9.73676 7.6146 9.81349 7.61721 9.89046C7.61982 9.96744 7.63757 10.0431 7.66944 10.1133C7.70132 10.1834 7.74669 10.2465 7.80297 10.2991C8.03969 10.5194 8.41 10.5077 8.63109 10.271C9.89203 8.92253 11.5498 8.18894 13.4264 8.15065C15.7545 8.103 18.1428 9.11472 19.9795 10.9249L20.617 11.553C20.9248 11.8561 21.1873 12.0069 21.4491 12.0069C21.7084 12.0069 21.967 11.8585 22.2694 11.5616L22.917 10.9249C23.8902 9.96831 25.0381 9.22347 26.267 8.74573C26.9496 11.8651 29.7333 14.2075 33.0542 14.2075C34.1912 14.2075 35.2652 13.9328 36.2134 13.4462C37.5117 16.9385 36.7663 20.956 34.2702 23.6287L25.8586 32.239L25.1625 32.375C24.9937 32.4078 24.8445 32.4375 24.7086 32.4648C23.8258 32.6437 23.6148 32.6859 22.5813 32.5265L17.5695 31.6101C16.8867 31.3742 16.9555 30.8304 16.9937 30.6671C17.0539 30.4132 17.2898 30.0031 17.7969 30.0796L17.8109 30.082C18.0367 30.1109 18.2789 30.1421 18.532 30.1742C19.4813 30.2968 20.5562 30.4351 21.5109 30.5328C23.4641 30.7304 24.5688 29.7054 24.7984 28.6007C25.032 27.475 24.3906 25.9781 22.4297 25.3523C22.4062 25.3453 22.382 25.339 22.357 25.3343L19.1297 24.7421C17.3781 24.421 16.0156 24.6687 13.9531 25.0437C13.4078 25.1429 12.7891 25.2546 12.1 25.3679L10.5703 25.6195L10.0992 25.1375L8.62656 23.6296C5.87422 20.6789 5.26406 16.057 7.14531 12.3875C7.29297 12.1 7.17891 11.7468 6.89141 11.5992C6.60313 11.4515 6.25 11.5648 6.10234 11.8531C3.99922 15.9562 4.68672 21.1296 7.775 24.4343C7.77812 24.4375 7.78125 24.4406 7.78359 24.4437L9.15859 25.8515L6.59781 26.2724V26.2056C6.59781 25.7532 6.19867 25.3851 5.70805 25.3851H0.8875C0.398125 25.3851 0 25.7532 0 26.2056V36.5153C0 36.9678 0.398125 37.3358 0.8875 37.3358H5.70813C6.19875 37.3358 6.59789 36.9678 6.59789 36.5153V36.4443L11.8672 37.8781L16.7313 39.2C17.8414 39.5445 18.7359 39.6867 19.5523 39.6867C20.8445 39.6867 21.9422 39.332 23.3922 38.8632C23.5211 38.8218 23.6531 38.7789 23.7891 38.7351L33.3742 35.6617C34.4852 35.3054 35.2758 34.5054 35.4883 33.5218C35.6531 32.7593 35.4234 32.0062 34.8734 31.507C34.4281 31.1031 33.3813 30.5234 31.3633 31.1617L27.8836 31.8421L35.1133 24.4437C35.1164 24.4406 35.1188 24.4375 35.1219 24.4343ZM1.17188 36.1639V26.5569H5.42594V26.9595L5.42578 26.9632V35.6772L5.42594 35.6792V36.1639H1.17188ZM31.6875 32.2882C32.7687 31.9414 33.643 31.9726 34.0867 32.375C34.3258 32.5921 34.4195 32.9203 34.343 33.2734C34.2195 33.8429 33.7234 34.3187 33.0164 34.5453L23.4305 37.6195C23.2938 37.6632 23.1609 37.7062 23.0312 37.7484C20.7383 38.489 19.5875 38.8617 17.0688 38.0781C17.0625 38.0757 17.0555 38.0742 17.0484 38.0718L6.59781 35.2297V27.4601L12.2898 26.525C12.9883 26.4101 13.6125 26.296 14.1633 26.196C16.1672 25.832 17.3773 25.6124 18.918 25.8953L22.1078 26.4804C23.3516 26.889 23.7805 27.7398 23.6508 28.3625C23.5016 29.082 22.7078 29.4765 21.6297 29.3671C20.6906 29.271 19.6234 29.1335 18.682 29.0124C18.4305 28.9796 18.1891 28.9484 17.9648 28.9203C16.8445 28.7546 16.0547 29.5382 15.8531 30.4C15.8102 30.5835 15.793 30.7789 15.8055 30.9757C15.8484 31.6882 16.2742 32.4273 17.2461 32.7374C17.2703 32.7453 17.5938 32.8054 17.5938 32.8054L22.3789 33.6804L22.3945 33.6828C23.382 33.8367 23.8094 33.8234 24.4148 33.7164C24.5734 33.6882 25.2203 33.557 25.3867 33.5249L26.4414 33.3187C26.4414 33.3187 31.6656 32.2953 31.6875 32.2882Z" fill="#a87648"/>
</svg>
