<svg width="40" height="34" viewBox="0 0 40 34" fill="#a87648" xmlns="http://www.w3.org/2000/svg">
    <path d="M38.4767 8.07883L22.2454 1.12239C20.8184 0.510849 19.1808 0.511328 17.752 1.12358L1.52421 8.07843C0.58408 8.48125 0 9.36687 0 10.3896C0 11.4118 0.583681 12.2969 1.52325 12.6996L3.44151 13.5218C3.43951 13.5416 3.43848 13.5617 3.43848 13.5819V22.6595C2.697 22.91 2.16145 23.6117 2.16145 24.4367C2.16145 24.9149 2.34167 25.3517 2.63738 25.6834C2.3103 26.0041 2.09313 26.4387 2.04827 26.9313L1.5887 31.9869C1.57332 32.158 1.5937 32.3305 1.64854 32.4934C1.70337 32.6563 1.79147 32.806 1.90724 32.9331C2.02326 33.0599 2.16437 33.1612 2.32163 33.2305C2.47888 33.2999 2.64884 33.3358 2.82071 33.336H5.25337C5.60008 33.336 5.93307 33.1891 6.16684 32.9331C6.28262 32.806 6.37073 32.6563 6.42556 32.4934C6.4804 32.3305 6.50077 32.158 6.48538 31.9869L6.02581 26.9313C5.98104 26.4388 5.76378 26.0041 5.4367 25.6834C5.73241 25.3518 5.91264 24.915 5.91264 24.4367C5.91264 23.6118 5.37708 22.9101 4.63561 22.6595V14.0335L7.91102 15.4373C7.90901 15.4573 7.90799 15.4773 7.90799 15.4974V20.0678C7.90799 21.9753 9.21407 23.7399 11.5857 25.0367C13.8431 26.271 16.8313 26.9507 19.9998 26.9507C23.1684 26.9507 26.1566 26.271 28.4139 25.0367C30.7855 23.7399 32.0917 21.9753 32.0917 20.0678V15.4974C32.0917 15.4771 32.0907 15.4571 32.0887 15.4374L38.4757 12.7001C39.4158 12.2972 39.9999 11.4115 39.9999 10.3888C40 9.36663 39.4163 8.48149 38.4767 8.07883ZM5.28282 32.1257C5.27101 32.1387 5.25816 32.1387 5.25337 32.1387H2.82071C2.81584 32.1387 2.80307 32.1387 2.79126 32.1257C2.77937 32.1127 2.78057 32.1 2.78097 32.0952L3.24054 27.0396C3.25777 26.8406 3.34925 26.6552 3.49682 26.5205C3.64439 26.3857 3.83725 26.3114 4.03708 26.3123C4.2369 26.3114 4.42974 26.3858 4.57729 26.5205C4.72484 26.6553 4.81632 26.8406 4.83355 27.0396L5.29312 32.0952C5.2936 32.1 5.29471 32.1127 5.28282 32.1257ZM4.03708 25.1151C3.66299 25.1151 3.35866 24.8108 3.35866 24.4367C3.35866 24.0626 3.66299 23.7582 4.03708 23.7582C4.41117 23.7582 4.7155 24.0626 4.7155 24.4367C4.7155 24.8108 4.41117 25.1151 4.03708 25.1151ZM30.8946 17.5138C30.8946 19.0617 29.6206 20.573 27.3993 21.6602C27.3286 21.6947 27.2655 21.7428 27.2135 21.8018C27.1615 21.8607 27.1216 21.9293 27.0961 22.0037C27.0707 22.0781 27.0601 22.1567 27.065 22.2352C27.0699 22.3136 27.0902 22.3903 27.1248 22.4609C27.1593 22.5316 27.2075 22.5947 27.2664 22.6467C27.3254 22.6987 27.394 22.7386 27.4683 22.7641C27.5427 22.7896 27.6214 22.8002 27.6998 22.7953C27.7783 22.7903 27.855 22.77 27.9256 22.7354C29.1577 22.1324 30.1449 21.3978 30.8487 20.581C30.6242 21.8433 29.576 23.037 27.8398 23.9864C25.7555 25.126 22.9713 25.7536 20 25.7536C17.0287 25.7536 14.2445 25.126 12.1603 23.9864C10.4303 23.0404 9.38312 21.852 9.15357 20.5947C9.75864 21.2922 10.5751 21.93 11.5858 22.4827C13.8431 23.717 16.8314 24.3968 19.9999 24.3968C20.8863 24.3968 21.7704 24.3428 22.6276 24.2365C22.7057 24.2268 22.781 24.2019 22.8494 24.1631C22.9177 24.1243 22.9778 24.0724 23.0261 24.0104C23.0745 23.9484 23.1101 23.8775 23.131 23.8017C23.1519 23.7259 23.1577 23.6468 23.148 23.5688C23.1384 23.4907 23.1135 23.4154 23.0747 23.347C23.0359 23.2786 22.984 23.2185 22.922 23.1702C22.86 23.1219 22.7891 23.0862 22.7133 23.0653C22.6375 23.0444 22.5583 23.0387 22.4803 23.0484C21.6718 23.1487 20.8373 23.1996 19.9999 23.1996C17.0286 23.1996 14.2444 22.572 12.1602 21.4323C10.1902 20.3551 9.10528 18.9636 9.10528 17.5138V15.9491L17.7546 19.6561C18.4676 19.9617 19.2332 20.1145 19.9992 20.1145C20.7661 20.1145 21.5332 19.9613 22.248 19.655L30.8946 15.9493V17.5138ZM38.0042 11.5997L21.7763 18.5544C20.6474 19.0383 19.3534 19.0387 18.2262 18.5556L5.82388 13.2403L17.1877 11.2639C17.6989 11.8688 18.7405 12.2649 19.9999 12.2649C21.7973 12.2649 23.1526 11.4586 23.1526 10.3893C23.1526 9.32002 21.7973 8.51366 19.9999 8.51366C18.3676 8.51366 17.1 9.17883 16.881 10.102L3.93452 12.3535C3.89728 12.3601 3.86075 12.3702 3.82541 12.3836L1.99496 11.599C1.4954 11.3851 1.19721 10.9329 1.19721 10.3896C1.19721 9.84576 1.4958 9.39305 1.99583 9.17875L18.2237 2.2239C18.7854 1.98388 19.39 1.86034 20.0009 1.86075C20.6059 1.86075 21.2107 1.98143 21.7738 2.2227L38.0051 9.17915C38.5046 9.39321 38.8028 9.84544 38.8028 10.3887C38.8028 10.9327 38.5042 11.3854 38.0042 11.5997ZM18.0445 10.3894C18.0445 10.215 18.7168 9.71095 19.9999 9.71095C21.283 9.71095 21.9554 10.215 21.9554 10.3894C21.9554 10.5638 21.283 11.0678 19.9999 11.0678C18.7168 11.0678 18.0445 10.5637 18.0445 10.3894Z" fill="#a87648"/>
    <path d="M24.4682 23.9038C24.5128 23.9038 24.5581 23.8988 24.6035 23.8883C25.049 23.7857 25.4902 23.6654 25.9262 23.5279C26.2414 23.4283 26.4161 23.0919 26.3164 22.7767C26.2168 22.4616 25.8805 22.2867 25.5652 22.3864C25.1593 22.5144 24.7486 22.6262 24.334 22.7217C24.1793 22.7575 24.0452 22.8532 23.9611 22.9878C23.8769 23.1224 23.8497 23.285 23.8855 23.4397C23.9159 23.5715 23.9901 23.6891 24.0959 23.7734C24.2017 23.8576 24.3329 23.9036 24.4682 23.9038Z" fill="#a87648"/>
</svg>
