<svg width="40" height="40" viewBox="0 0 40 40" fill="#a87648" xmlns="http://www.w3.org/2000/svg">
    <path d="M9.20125 13.6207C8.89656 13.316 8.40125 13.316 8.09664 13.6207C7.79117 13.9262 7.79117 14.4207 8.09664 14.7254C8.40133 15.0309 8.89664 15.0309 9.20125 14.7254C9.50664 14.4207 9.50664 13.9262 9.20125 13.6207ZM19.7812 34.978C20.1256 34.5114 20.3118 33.9493 20.3118 33.3583C20.3118 31.8506 19.0852 30.624 17.5775 30.624H4.29672C3.56602 30.624 2.87937 30.9084 2.3632 31.4247C1.8468 31.941 1.56242 32.6276 1.56242 33.3583C1.5619 33.941 1.74854 34.5084 2.09484 34.9771C0.850859 35.6311 0 36.9358 0 38.4362V39.2174C0 39.6489 0.349844 39.9987 0.78125 39.9987H21.093C21.5244 39.9987 21.8742 39.6489 21.8742 39.2174V38.4362C21.8742 36.9365 21.0242 35.6324 19.7812 34.978ZM3.46797 32.5294C3.57656 32.4203 3.70572 32.3337 3.84798 32.2748C3.99023 32.216 4.14276 32.1859 4.29672 32.1863H17.5775C18.2237 32.1863 18.7493 32.7121 18.7493 33.3581C18.7493 33.6714 18.6274 33.9657 18.4062 34.187C18.2976 34.2961 18.1684 34.3826 18.0262 34.4415C17.8839 34.5004 17.7314 34.5305 17.5774 34.53H4.29672C3.65055 34.53 3.12492 34.0043 3.12492 33.3582C3.12492 33.045 3.24672 32.7506 3.46797 32.5294ZM1.56242 38.4362C1.56242 37.1439 2.61383 36.0925 3.90609 36.0925H17.9681C19.2604 36.0925 20.3118 37.1439 20.3118 38.4362H1.56242Z" fill="#a87648"/>
    <path d="M39.2732 32.8221C39.0079 32.4109 38.6913 32.0473 38.3322 31.7414L34.6818 28.5576C34.6529 28.514 34.6196 28.4734 34.5827 28.4364C34.521 28.375 34.4494 28.3243 34.3709 28.2866L32.1634 26.3612L21.9454 17.4478C22.3637 17.0105 22.594 16.4388 22.594 15.8307C22.594 15.2043 22.3502 14.6156 21.907 14.1725C21.7188 13.9845 21.4997 13.8302 21.2592 13.7165L22.2045 12.7712C22.4679 12.8414 22.7393 12.8771 23.012 12.8773C23.812 12.8773 24.6122 12.5727 25.2212 11.9637C25.8117 11.3733 26.1369 10.5885 26.1369 9.75391C26.1369 8.9193 25.8117 8.13453 25.2213 7.54414L18.5926 0.915547C18.0022 0.325156 17.2173 0 16.3825 0C15.548 0 14.7634 0.325156 14.1731 0.915547C13.3572 1.73148 13.0886 2.89 13.3656 3.93234L3.93398 13.3639C3.67012 13.2936 3.39822 13.2581 3.12516 13.258C2.29016 13.258 1.5057 13.583 0.915781 14.1728C-0.302656 15.3913 -0.302656 17.3738 0.915781 18.5923L7.54445 25.2211C8.15375 25.8303 8.95398 26.1349 9.75422 26.1349C10.5545 26.1349 11.3548 25.8303 11.9641 25.2211C12.78 24.4051 13.0486 23.2466 12.7716 22.2043L13.7149 21.2609C13.8299 21.5007 13.9849 21.7192 14.1732 21.907C14.6159 22.3497 15.2044 22.5935 15.8306 22.5935C16.438 22.5935 17.0096 22.3636 17.4475 21.9458L28.3308 34.45C28.3608 34.4969 28.3958 34.5415 28.4367 34.5824C28.4507 34.5964 28.4655 34.6091 28.4803 34.6218L31.7234 38.3479C31.8049 38.4441 31.8904 38.5369 31.9796 38.6261C32.8703 39.5165 34.0468 39.9997 35.282 39.9997C35.4997 39.9997 35.7195 39.9847 35.9395 39.9542C37.4105 39.7506 38.6819 38.8706 39.4273 37.5395C40.244 36.0807 40.1832 34.2286 39.2732 32.8221ZM15.278 2.02039C15.4227 1.87484 15.5949 1.75942 15.7845 1.68082C15.974 1.60223 16.1773 1.56201 16.3826 1.5625C16.5879 1.56195 16.7913 1.60213 16.9811 1.68073C17.1708 1.75933 17.343 1.87478 17.4878 2.02039L24.1166 8.64906C24.2621 8.79382 24.3776 8.96601 24.4561 9.15567C24.5347 9.34533 24.5749 9.54869 24.5744 9.75399C24.5749 9.95929 24.5347 10.1627 24.4561 10.3523C24.3775 10.542 24.2621 10.7142 24.1165 10.8589C23.5075 11.468 22.5164 11.468 21.9074 10.8589L15.2784 4.22992L15.278 4.22953C14.6689 3.62047 14.6689 2.62945 15.278 2.02039ZM10.8592 24.1163C10.25 24.7255 9.25851 24.7255 8.6493 24.1163L2.02062 17.4876C1.41133 16.8783 1.41133 15.887 2.02062 15.2777C2.31531 14.9829 2.70766 14.8205 3.12516 14.8205C3.54258 14.8205 3.93469 14.9828 4.2293 15.2773L10.8591 21.9072C11.4684 22.5162 11.4684 23.5073 10.8592 24.1163ZM14.1484 18.6178L11.964 20.8023L5.33461 14.173L14.1731 5.3343L20.8024 11.9637L18.614 14.1522C18.6069 14.1589 18.5999 14.1655 18.5924 14.1729L14.1754 18.59C14.1662 18.599 14.1574 18.6084 14.1484 18.6178ZM16.938 20.2476L16.9334 20.2522L16.3832 20.8023C16.3108 20.8751 16.2246 20.9328 16.1298 20.9721C16.0349 21.0113 15.9332 21.0314 15.8305 21.0311C15.7279 21.0314 15.6262 21.0113 15.5313 20.9721C15.4365 20.9328 15.3504 20.8751 15.278 20.8023C15.2051 20.7298 15.1473 20.6436 15.108 20.5487C15.0687 20.4538 15.0486 20.352 15.0489 20.2492C15.0489 20.0447 15.127 19.8523 15.2686 19.7071L19.7062 15.2695C20.0103 14.9738 20.502 14.9774 20.8026 15.2777C20.8754 15.3501 20.9332 15.4363 20.9725 15.5312C21.0118 15.6262 21.0319 15.728 21.0316 15.8307C21.0319 15.9333 21.0118 16.035 20.9725 16.1298C20.9332 16.2247 20.8754 16.3107 20.8025 16.383L20.2555 16.9299C20.2518 16.9336 20.2481 16.9373 20.2444 16.9411L16.938 20.2476ZM18.5558 20.8394L20.8391 18.5561L30.5064 26.9885L26.9787 30.5163L18.5558 20.8394ZM28.007 31.6977L31.6866 28.018L32.8668 29.0474L29.0352 32.8791L28.007 31.6977ZM38.0641 36.7763C37.5599 37.6765 36.7075 38.2706 35.7254 38.4066C34.7455 38.5422 33.7828 38.2195 33.0842 37.5212C33.0246 37.4616 32.9675 37.3995 32.913 37.3352L32.9055 37.3263L30.0633 34.0606L34.047 30.0768L37.3087 32.9219L37.3162 32.9284C37.5603 33.1359 37.777 33.3852 37.9608 33.6701C38.5516 34.583 38.593 35.8314 38.0641 36.7763Z" fill="#a87648"/>
    <path d="M14.7255 8.09648C14.4203 7.79141 13.9258 7.79141 13.6206 8.09648L10.306 11.4112C10.0009 11.7162 10.0009 12.2109 10.306 12.5159C10.3784 12.5886 10.4645 12.6462 10.5593 12.6855C10.6541 12.7248 10.7558 12.7449 10.8584 12.7448C10.961 12.7449 11.0626 12.7247 11.1574 12.6855C11.2522 12.6462 11.3383 12.5886 11.4108 12.5159L14.7255 9.20125C15.0306 8.89625 15.0306 8.40164 14.7255 8.09648Z" fill="#a87648"/>
</svg>
