<svg width="40" height="40" viewBox="0 0 40 40" fill="#a87648" xmlns="http://www.w3.org/2000/svg">
    <path d="M30.0003 24.6666C28.9455 24.6666 27.9144 24.9794 27.0373 25.5655C26.1602 26.1515 25.4766 26.9844 25.073 27.959C24.6693 28.9335 24.5637 30.0059 24.7695 31.0404C24.9753 32.075 25.4832 33.0253 26.2291 33.7712C26.975 34.5171 27.9253 35.025 28.9598 35.2308C29.9944 35.4366 31.0668 35.331 32.0413 34.9273C33.0158 34.5236 33.8488 33.8401 34.4348 32.963C35.0209 32.0859 35.3337 31.0548 35.3337 30C35.3321 28.586 34.7697 27.2303 33.7698 26.2305C32.77 25.2306 31.4143 24.6682 30.0003 24.6666ZM30.0003 34C29.2092 34 28.4358 33.7654 27.778 33.3258C27.1203 32.8863 26.6076 32.2616 26.3048 31.5307C26.0021 30.7998 25.9228 29.9955 26.0772 29.2196C26.2315 28.4437 26.6125 27.7309 27.1719 27.1715C27.7313 26.6121 28.444 26.2312 29.22 26.0768C29.9959 25.9225 30.8002 26.0017 31.5311 26.3044C32.262 26.6072 32.8867 27.1199 33.3262 27.7777C33.7657 28.4355 34.0003 29.2088 34.0003 30C33.9993 31.0605 33.5775 32.0773 32.8276 32.8272C32.0777 33.5771 31.0609 33.9989 30.0003 34Z" fill="#a87648"/>
    <path d="M29.9997 27.3334C29.4723 27.3334 28.9567 27.4898 28.5182 27.7828C28.0796 28.0758 27.7378 28.4923 27.536 28.9796C27.3342 29.4668 27.2814 30.003 27.3842 30.5203C27.4871 31.0376 27.7411 31.5127 28.1141 31.8857C28.487 32.2586 28.9622 32.5126 29.4794 32.6155C29.9967 32.7184 30.5329 32.6656 31.0202 32.4637C31.5074 32.2619 31.9239 31.9201 32.2169 31.4816C32.5099 31.043 32.6663 30.5275 32.6663 30C32.6663 29.2928 32.3854 28.6145 31.8853 28.1144C31.3852 27.6143 30.7069 27.3334 29.9997 27.3334ZM29.9997 31.3334C29.736 31.3334 29.4782 31.2552 29.2589 31.1087C29.0396 30.9622 28.8688 30.7539 28.7678 30.5103C28.6669 30.2667 28.6405 29.9986 28.692 29.7399C28.7434 29.4813 28.8704 29.2437 29.0569 29.0572C29.2433 28.8708 29.4809 28.7438 29.7396 28.6923C29.9982 28.6409 30.2663 28.6673 30.5099 28.7682C30.7536 28.8691 30.9618 29.04 31.1083 29.2593C31.2548 29.4785 31.333 29.7363 31.333 30C31.333 30.3537 31.1925 30.6928 30.9425 30.9429C30.6924 31.1929 30.3533 31.3334 29.9997 31.3334Z" fill="#a87648"/>
    <path d="M39.2033 28.1333L38.0087 27.6553C37.8397 27.0803 37.6088 26.5252 37.32 26L37.8273 24.816C37.917 24.6117 37.9481 24.3864 37.9171 24.1655C37.8862 23.9445 37.7944 23.7365 37.652 23.5647C37.4693 23.3467 37.274 23.1347 37.0707 22.932C36.8673 22.7293 36.656 22.532 36.438 22.3507C36.2665 22.2082 36.0587 22.1163 35.8379 22.0854C35.6171 22.0544 35.3921 22.0856 35.188 22.1753L34 22.68C33.4742 22.3911 32.9184 22.1601 32.3427 21.9913L31.8667 20.8C31.7853 20.5922 31.6477 20.4112 31.4694 20.2771C31.291 20.143 31.0789 20.0611 30.8567 20.0407C30.286 19.9893 29.712 19.9893 29.1413 20.0407C28.9195 20.0615 28.7078 20.1435 28.5298 20.2776C28.3518 20.4117 28.2146 20.5925 28.1333 20.8L27.6553 21.9947C27.0804 22.1625 26.5254 22.3923 26 22.68L24.816 22.1727C24.6118 22.0826 24.3864 22.0513 24.1654 22.0823C23.9443 22.1133 23.7363 22.2053 23.5647 22.348C23.3467 22.5307 23.1347 22.726 22.932 22.9293C22.7293 23.1327 22.532 23.344 22.3507 23.562C22.267 23.6657 22.2016 23.783 22.1573 23.9087C21.2249 23.528 20.2272 23.3326 19.22 23.3333H19.034C18.5988 22.7785 18.006 22.3683 17.3333 22.1567V21.4413C18.2728 20.8099 19.0559 19.9725 19.623 18.9929C20.1901 18.0132 20.5263 16.9171 20.606 15.788C20.9292 15.6829 21.2277 15.5133 21.4834 15.2894C21.7391 15.0654 21.9466 14.7919 22.0933 14.4853C22.5745 13.4115 22.7719 12.232 22.6667 11.06V9.51267C22.6875 7.01442 21.7165 4.60991 19.9668 2.82659C18.2171 1.04327 15.8315 0.0267469 13.3333 0C10.8351 0.0267469 8.44955 1.04327 6.69985 2.82659C4.95014 4.60991 3.9792 7.01442 4 9.51267V11.06C3.89477 12.2335 4.09288 13.4144 4.57533 14.4893C4.72202 14.7952 4.92931 15.0681 5.18464 15.2915C5.43996 15.5148 5.738 15.684 6.06067 15.7887C6.14044 16.9177 6.47667 18.0137 7.04378 18.9932C7.61089 19.9727 8.39393 20.81 9.33333 21.4413V22.1567C8.6607 22.3683 8.06783 22.7785 7.63267 23.3333H7.44667C3.34067 23.3333 0 26.5067 0 30.4067V38.6667C0 39.0203 0.140476 39.3594 0.390524 39.6095C0.640573 39.8595 0.979711 40 1.33333 40H25.3333C25.687 40 26.0261 39.8595 26.2761 39.6095C26.5262 39.3594 26.6667 39.0203 26.6667 38.6667V37.642C26.988 37.7848 27.318 37.9072 27.6547 38.0087L28.1327 39.2033C28.2141 39.4111 28.3516 39.5922 28.53 39.7262C28.7083 39.8603 28.9205 39.9422 29.1427 39.9627C29.7133 40.0135 30.2874 40.0135 30.858 39.9627C31.08 39.942 31.2918 39.86 31.4699 39.7259C31.648 39.5918 31.7854 39.4109 31.8667 39.2033L32.3447 38.0087C32.9198 37.8397 33.4748 37.6088 34 37.32L35.184 37.8273C35.3883 37.917 35.6136 37.9481 35.8345 37.9171C36.0555 37.8862 36.2635 37.7944 36.4353 37.652C36.6533 37.4693 36.8653 37.274 37.068 37.0707C37.2707 36.8673 37.468 36.656 37.6493 36.438C37.7918 36.2665 37.8837 36.0587 37.9146 35.8379C37.9456 35.6171 37.9145 35.3921 37.8247 35.188L37.32 34C37.609 33.4742 37.8399 32.9184 38.0087 32.3427L39.2033 31.8647C39.4111 31.7833 39.5922 31.6457 39.7262 31.4674C39.8603 31.289 39.9422 31.0769 39.9627 30.8547C40.0135 30.284 40.0135 29.71 39.9627 29.1393C39.9415 28.9178 39.8593 28.7066 39.7253 28.529C39.5912 28.3514 39.4105 28.2144 39.2033 28.1333ZM13.3333 35.9467C12.8317 35.7171 12.3743 35.4012 11.982 35.0133L12.6 29.3333H14.0667L14.6827 35.016C14.2908 35.4027 13.8341 35.7177 13.3333 35.9467ZM13.3333 25.5693C13.9085 25.6434 14.4628 25.8324 14.9633 26.1253L14.2153 28H12.4513L11.7033 26.1333C12.204 25.8394 12.7581 25.6477 13.3333 25.5693ZM10.6467 27.4947C10.6675 27.4175 10.6926 27.3416 10.722 27.2673L11.322 28.76L10.81 33.4833C9.81801 31.578 9.18524 29.5064 8.94333 27.372C9.16877 27.5756 9.41322 27.7571 9.67334 27.914C9.76277 27.9645 9.86267 27.9937 9.96523 27.9992C10.0678 28.0047 10.1702 27.9865 10.2646 27.9459C10.3589 27.9053 10.4426 27.8434 10.5091 27.7652C10.5756 27.6869 10.6232 27.5943 10.648 27.4947H10.6467ZM15.86 33.4867L15.3473 28.76L15.9473 27.2673C15.9766 27.3417 16.0018 27.4176 16.0227 27.4947C16.0475 27.5943 16.095 27.6869 16.1615 27.7652C16.228 27.8434 16.3117 27.9053 16.4061 27.9459C16.5004 27.9865 16.6029 28.0047 16.7054 27.9992C16.808 27.9937 16.9079 27.9645 16.9973 27.914C17.2586 27.7567 17.5041 27.5748 17.7307 27.3707C17.4887 29.5071 16.8545 31.5805 15.86 33.4867ZM17.9933 24.168C17.928 24.978 17.5554 25.7324 16.952 26.2767C16.5865 25.6676 16.0567 25.1738 15.4233 24.852C16.0494 24.5152 16.5873 24.0355 16.9933 23.452C17.3933 23.5814 17.7433 23.8316 17.9953 24.168H17.9933ZM13.3333 1.33333C15.4384 1.35925 17.4504 2.20477 18.942 3.69033C20.4337 5.17588 21.2875 7.18441 21.322 9.28933C21.064 9.22289 20.7936 9.22106 20.5347 9.284C19.966 6.97267 17.6947 5.78867 16.2827 5.43533C16.0517 5.37238 15.81 5.35938 15.5737 5.3972C15.3373 5.43503 15.1118 5.5228 14.912 5.65467C13.03 6.932 9.43467 7.53467 7.60733 7.614C7.1825 7.63712 6.78177 7.81865 6.48421 8.12275C6.18665 8.42684 6.01388 8.83143 6 9.25667C5.78156 9.22108 5.55817 9.23016 5.34333 9.28333C5.37943 7.17923 6.23406 5.17202 7.72583 3.68771C9.2176 2.20341 11.2291 1.35887 13.3333 1.33333ZM7.38533 15.62C7.372 15.3723 7.28221 15.1347 7.12832 14.9401C6.97443 14.7455 6.764 14.6034 6.526 14.5333C6.36148 14.4897 6.20864 14.4102 6.07841 14.3006C5.94818 14.191 5.84378 14.054 5.77267 13.8993C5.38357 13.0067 5.23221 12.0285 5.33333 11.06C5.33224 10.9798 5.34973 10.9005 5.38443 10.8282C5.41913 10.7559 5.47009 10.6926 5.53333 10.6433C5.59207 10.5967 5.66438 10.5705 5.73933 10.5687C5.7675 10.5686 5.79554 10.5724 5.82267 10.58C5.90708 10.6187 5.97409 10.6873 6.01067 10.7727C6.04 10.9355 6.12886 11.0817 6.25997 11.1827C6.39109 11.2837 6.55507 11.3323 6.72004 11.319C6.885 11.3058 7.03915 11.2317 7.1525 11.1111C7.26586 10.9906 7.33031 10.8321 7.33333 10.6667V9.32667C7.33017 9.23275 7.36285 9.14115 7.42476 9.07045C7.48667 8.99975 7.57315 8.95526 7.66667 8.946C9.71467 8.85667 13.5333 8.20067 15.652 6.762C15.6966 6.73635 15.746 6.72 15.7971 6.71393C15.8482 6.70786 15.9 6.71219 15.9493 6.72667C16.09 6.76133 19.3333 7.60467 19.3333 10.4V10.6667C19.3336 10.8341 19.3969 10.9952 19.5105 11.1182C19.6242 11.2411 19.7799 11.3167 19.9468 11.3301C20.1137 11.3434 20.2795 11.2935 20.4113 11.1902C20.543 11.087 20.6311 10.9379 20.658 10.7727C20.6941 10.6876 20.7607 10.6191 20.8447 10.5807C20.8946 10.567 20.9471 10.5656 20.9977 10.5765C21.0482 10.5874 21.0955 10.6103 21.1353 10.6433C21.1986 10.6926 21.2495 10.7559 21.2842 10.8282C21.3189 10.9005 21.3364 10.9798 21.3353 11.06C21.437 12.0277 21.2863 13.0052 20.898 13.8973C20.8255 14.0551 20.7187 14.1947 20.5854 14.3059C20.4521 14.4171 20.2956 14.4971 20.1273 14.54C19.8929 14.6118 19.6862 14.7539 19.5353 14.9471C19.3843 15.1403 19.2964 15.3752 19.2833 15.62C19.2042 17.1505 18.5449 18.5932 17.4395 19.6547C16.3341 20.7161 14.8657 21.3164 13.3333 21.3333C11.8013 21.3159 10.3334 20.7154 9.22846 19.654C8.12349 18.5926 7.46441 17.1501 7.38533 15.62ZM13.3333 22.6667C14.2471 22.6668 15.1524 22.4914 16 22.15V22.5253C15.8493 22.8213 15.218 23.798 13.3333 24.2147C11.4413 23.7967 10.812 22.8147 10.6667 22.528V22.15C11.5143 22.4914 12.4196 22.6668 13.3333 22.6667ZM9.67133 23.4493C10.0774 24.0329 10.6153 24.5125 11.2413 24.8493C10.6082 25.1711 10.0784 25.6646 9.71267 26.2733C9.109 25.7295 8.7364 24.9752 8.67133 24.1653C8.92298 23.8294 9.27222 23.5793 9.67133 23.4493ZM1.33333 30.4067C1.38555 28.8535 2.04509 27.3827 3.17017 26.3106C4.29526 25.2385 5.79607 24.6506 7.35 24.6733C7.44533 27.0513 8.10933 34.94 12.6667 37.1053V38.6667H1.33333V30.4067ZM14 38.6667V37.1033C18.556 34.9373 19.2207 27.054 19.3167 24.6733C20.438 24.6873 21.5356 24.9978 22.498 25.5733L22.68 26C22.3911 26.5259 22.1601 27.0816 21.9913 27.6573L20.8 28.1333C20.5922 28.2147 20.4112 28.3523 20.2771 28.5306C20.143 28.709 20.0611 28.9211 20.0407 29.1433C20.012 29.426 20 29.7127 20 30C20 30.2873 20.012 30.574 20.0373 30.858C20.0583 31.0803 20.1408 31.2925 20.2755 31.4706C20.4102 31.6487 20.5918 31.7859 20.8 31.8667L21.9947 32.3447C22.1625 32.9196 22.3923 33.4746 22.68 34L22.1727 35.184C22.083 35.3883 22.0519 35.6136 22.0829 35.8345C22.1138 36.0555 22.2056 36.2635 22.348 36.4353C22.5307 36.6533 22.726 36.8653 22.9293 37.068C23.1327 37.2707 23.344 37.468 23.562 37.6493C23.7335 37.7918 23.9413 37.8837 24.1621 37.9146C24.3829 37.9456 24.6079 37.9145 24.812 37.8247L25.3333 37.6047V38.6667H14ZM38.642 30.6553L37.2047 31.2307C37.1065 31.2698 37.019 31.3318 36.9494 31.4114C36.8799 31.491 36.8302 31.5861 36.8047 31.6887C36.6364 32.3672 36.3667 33.0166 36.0047 33.6147C35.9501 33.7052 35.9178 33.8075 35.9105 33.9129C35.9032 34.0184 35.9211 34.1241 35.9627 34.2213L36.5733 35.6473C36.2883 35.9792 35.9785 36.289 35.6467 36.574L34.2207 35.9633C34.1236 35.9213 34.0178 35.9032 33.9122 35.9106C33.8067 35.9179 33.7044 35.9504 33.614 36.0053C33.0159 36.3673 32.3666 36.637 31.688 36.8053C31.5854 36.8309 31.4904 36.8805 31.4107 36.9501C31.3311 37.0196 31.2692 37.1071 31.23 37.2053L30.6547 38.6427C30.2184 38.6767 29.7802 38.6767 29.344 38.6427L28.7687 37.2053C28.7295 37.1071 28.6676 37.0196 28.5879 36.9501C28.5083 36.8805 28.4133 36.8309 28.3107 36.8053C27.6321 36.637 26.9828 36.3673 26.3847 36.0053C26.2942 35.9504 26.192 35.9179 26.0864 35.9106C25.9809 35.9033 25.8751 35.9214 25.778 35.9633L24.352 36.574C24.0201 36.289 23.7103 35.9792 23.4253 35.6473L24.036 34.2213C24.0776 34.1241 24.0955 34.0184 24.0882 33.9129C24.0809 33.8075 24.0486 33.7052 23.994 33.6147C23.632 33.0166 23.3623 32.3672 23.194 31.6887C23.1684 31.5861 23.1188 31.491 23.0493 31.4114C22.9797 31.3318 22.8922 31.2698 22.794 31.2307L21.3567 30.6553C21.3413 30.4387 21.3333 30.2193 21.3333 30C21.3333 29.7807 21.3413 29.5613 21.358 29.3447L22.7953 28.7693C22.8936 28.7302 22.981 28.6682 23.0506 28.5886C23.1201 28.509 23.1698 28.4139 23.1953 28.3113C23.3636 27.6328 23.6333 26.9835 23.9953 26.3853C24.0499 26.2948 24.0822 26.1926 24.0895 26.0871C24.0968 25.9816 24.0789 25.8759 24.0373 25.7787L23.4267 24.3527C23.7117 24.0208 24.0215 23.711 24.3533 23.426L25.7793 24.0367C25.8765 24.0783 25.9823 24.0962 26.0877 24.0889C26.1932 24.0816 26.2955 24.0493 26.386 23.9947C26.9841 23.6327 27.6334 23.363 28.312 23.1947C28.4146 23.1691 28.5096 23.1195 28.5893 23.0499C28.6689 22.9804 28.7309 22.8929 28.77 22.7947L29.3453 21.3573C29.7816 21.3233 30.2198 21.3233 30.656 21.3573L31.2313 22.7947C31.2705 22.8929 31.3324 22.9804 31.4121 23.0499C31.4917 23.1195 31.5867 23.1691 31.6893 23.1947C32.3679 23.363 33.0172 23.6327 33.6153 23.9947C33.7059 24.0493 33.8081 24.0816 33.9136 24.0889C34.0191 24.0962 34.1248 24.0783 34.222 24.0367L35.648 23.426C35.9799 23.711 36.2897 24.0208 36.5747 24.3527L35.964 25.7787C35.9224 25.8759 35.9045 25.9816 35.9118 26.0871C35.9191 26.1926 35.9514 26.2948 36.006 26.3853C36.368 26.9835 36.6377 27.6328 36.806 28.3113C36.8316 28.4139 36.8812 28.509 36.9507 28.5886C37.0203 28.6682 37.1078 28.7302 37.206 28.7693L38.6433 29.3447C38.6764 29.781 38.6759 30.2191 38.642 30.6553Z" fill="#a87648"/>
    <path d="M37.3333 4H36C35.6464 4 35.3072 4.14048 35.0572 4.39052C34.8071 4.64057 34.6667 4.97971 34.6667 5.33333V8H29.3333V5.33333C29.3333 4.97971 29.1929 4.64057 28.9428 4.39052C28.6928 4.14048 28.3536 4 28 4H26.6667C25.9594 4 25.2811 4.28095 24.781 4.78105C24.281 5.28115 24 5.95942 24 6.66667V15.9633C24 16.0227 24 16.0827 24.0033 16.1427C24.0549 16.8389 24.3717 17.4888 24.8883 17.9585C25.4049 18.4281 26.082 18.6816 26.78 18.6667H37.3333C38.0406 18.6667 38.7189 18.3857 39.219 17.8856C39.719 17.3855 40 16.7072 40 16V6.66667C40 5.95942 39.719 5.28115 39.219 4.78105C38.7189 4.28095 38.0406 4 37.3333 4ZM25.3333 6.66667C25.3333 6.31305 25.4738 5.97391 25.7239 5.72386C25.9739 5.47381 26.313 5.33333 26.6667 5.33333H28V13.3333H26.6667C26.1984 13.3338 25.7386 13.4575 25.3333 13.692V6.66667ZM37.3333 17.3333H26.78C26.4244 17.3439 26.078 17.22 25.8098 16.9863C25.5416 16.7526 25.3715 16.4263 25.3333 16.0727V15.9793C25.3388 15.6293 25.4816 15.2955 25.7311 15.0499C25.9806 14.8043 26.3166 14.6666 26.6667 14.6667H28C28.3536 14.6667 28.6928 14.5262 28.9428 14.2761C29.1929 14.0261 29.3333 13.687 29.3333 13.3333V9.33333H34.6667V13.3333C34.6667 13.687 34.8071 14.0261 35.0572 14.2761C35.3072 14.5262 35.6464 14.6667 36 14.6667H37.3333C37.687 14.6667 38.0261 14.8071 38.2761 15.0572C38.5262 15.3072 38.6667 15.6464 38.6667 16C38.6667 16.3536 38.5262 16.6928 38.2761 16.9428C38.0261 17.1929 37.687 17.3333 37.3333 17.3333ZM38.6667 13.6913C38.2617 13.4561 37.8016 13.3326 37.3333 13.3333H36V5.33333H37.3333C37.687 5.33333 38.0261 5.47381 38.2761 5.72386C38.5262 5.97391 38.6667 6.31305 38.6667 6.66667V13.6913Z" fill="#a87648"/>
</svg>
